<svg style="shape-rendering:geometricPrecision; text-rendering:geometricPrecision; image-rendering:optimizeQuality; fill-rule:evenodd; clip-rule:evenodd" xml:space="preserve" xmlns="http://www.w3.org/2000/svg" version="1.1" xmlns:xlink="http://www.w3.org/1999/xlink" viewBox="0 0 8379 8379" width="1.7in" height="1.7in"><defs><style type="text/css">.fil0 {fill:none}
    .fil1 {fill:white;fill-rule:nonzero}</style></defs><g id="Layer_x0020_1"><rect x="0" y="0" width="8379" height="8379" class="fil0"/><path d="M 5111 3490 l -627 0 l 0 -412 c 0 -154 102 -190 174 -190 c 72 0 443 0 443 0 l 0 -680 l -610 -3 c -677 0 -832 507 -832 832 l 0 453 l -392 0 l 0 701 l 392 0 c 0 899 0 1983 0 1983 l 825 0 c 0 0 0 -1095 0 -1983 l 556 0 l 71 -701 z" class="fil1"/></g></svg>