<?xml version="1.0" ?><!DOCTYPE svg  PUBLIC '-//W3C//DTD SVG 1.1//EN'  'http://www.w3.org/Graphics/SVG/1.1/DTD/svg11.dtd'><svg height="1.70667in" style="shape-rendering:geometricPrecision; text-rendering:geometricPrecision; image-rendering:optimizeQuality; fill-rule:evenodd; clip-rule:evenodd" version="1.1" viewBox="0 0 10426 10426" width="1.70667in" xml:space="preserve" xmlns="http://www.w3.org/2000/svg" xmlns:xlink="http://www.w3.org/1999/xlink"><defs><style type="text/css">
   <![CDATA[
    .fil0 {fill:none}
    .fil1 {fill:white;fill-rule:nonzero}
   ]]>
  </style></defs><g id="Layer_x0020_1"><rect class="fil0" height="10426" width="10426"/><path class="fil1" d="M3632 5672c77,32 147,1 169,-84 16,-59 52,-208 69,-270 23,-85 14,-115 -49,-188 -135,-160 -222,-368 -222,-661 0,-852 637,-1614 1659,-1614 905,0 1402,553 1402,1291 0,972 -430,1792 -1068,1792 -353,0 -616,-292 -532,-649 102,-427 298,-888 298,-1196 0,-276 -148,-506 -455,-506 -360,0 -650,373 -650,872 0,318 108,534 108,534 0,0 -369,1562 -434,1836 -129,545 -19,1213 -10,1281 6,40 57,49 80,19 34,-43 463,-573 609,-1103 41,-150 237,-926 237,-926 117,223 459,420 823,420 1083,0 1818,-988 1818,-2310 0,-999 -846,-1930 -2133,-1930 -1601,0 -2409,1148 -2409,2105 0,580 220,1095 690,1287z"/></g></svg>